<svg width="9" height="10" viewBox="0 0 9 10" fill="none" xmlns="http://www.w3.org/2000/svg">
<path d="M9.00028 2.66019V9.16019C9.00028 9.2928 8.9476 9.41998 8.85383 9.51374C8.76006 9.60751 8.63289 9.66019 8.50028 9.66019H2.00028C1.86767 9.66019 1.74049 9.60751 1.64672 9.51374C1.55296 9.41998 1.50028 9.2928 1.50028 9.16019C1.50028 9.02758 1.55296 8.9004 1.64672 8.80664C1.74049 8.71287 1.86767 8.66019 2.00028 8.66019H7.2934L0.146528 1.51394C0.0527077 1.42012 -9.88558e-10 1.29287 0 1.16019C9.88558e-10 1.02751 0.0527077 0.90026 0.146528 0.80644C0.240348 0.71262 0.367596 0.659912 0.500278 0.659912C0.63296 0.659912 0.760208 0.71262 0.854028 0.80644L8.00028 7.95332V2.66019C8.00028 2.52758 8.05296 2.40041 8.14672 2.30664C8.24049 2.21287 8.36767 2.16019 8.50028 2.16019C8.63289 2.16019 8.76006 2.21287 8.85383 2.30664C8.9476 2.40041 9.00028 2.52758 9.00028 2.66019Z" fill="white"/>
</svg>
