<svg width="16" height="17" viewBox="0 0 16 17" fill="none" xmlns="http://www.w3.org/2000/svg">
<path d="M14.2075 4.08523L11.4144 1.29273C11.3215 1.19985 11.2113 1.12617 11.0899 1.0759C10.9686 1.02563 10.8385 0.999756 10.7072 0.999756C10.5759 0.999756 10.4458 1.02563 10.3245 1.0759C10.2031 1.12617 10.0929 1.19985 10 1.29273L2.29313 8.9996C2.19987 9.09213 2.12593 9.20226 2.0756 9.32362C2.02528 9.44497 1.99959 9.57511 2.00001 9.70648V12.4996C2.00001 12.7648 2.10536 13.0192 2.2929 13.2067C2.48043 13.3942 2.73479 13.4996 3.00001 13.4996H13.5C13.6326 13.4996 13.7598 13.4469 13.8536 13.3532C13.9473 13.2594 14 13.1322 14 12.9996C14 12.867 13.9473 12.7398 13.8536 12.6461C13.7598 12.5523 13.6326 12.4996 13.5 12.4996H7.20751L14.2075 5.4996C14.3004 5.40674 14.3741 5.29649 14.4243 5.17515C14.4746 5.05381 14.5005 4.92376 14.5005 4.79242C14.5005 4.66108 14.4746 4.53102 14.4243 4.40968C14.3741 4.28834 14.3004 4.17809 14.2075 4.08523ZM5.79313 12.4996H3.00001V9.70648L8.50001 4.20648L11.2931 6.9996L5.79313 12.4996ZM12 6.29273L9.20751 3.4996L10.7075 1.9996L13.5 4.79273L12 6.29273Z" fill="#2A7251"/>
</svg>
