<svg width="17" height="17" viewBox="0 0 17 17" fill="none" xmlns="http://www.w3.org/2000/svg">
<path d="M14.7656 7.16H8.76562V5.66H9.26562C9.53084 5.66 9.7852 5.55465 9.97273 5.36711C10.1603 5.17957 10.2656 4.92522 10.2656 4.66V2.66C10.2656 2.39479 10.1603 2.14043 9.97273 1.9529C9.7852 1.76536 9.53084 1.66 9.26562 1.66H7.26562C7.00041 1.66 6.74605 1.76536 6.55852 1.9529C6.37098 2.14043 6.26562 2.39479 6.26562 2.66V4.66C6.26562 4.92522 6.37098 5.17957 6.55852 5.36711C6.74605 5.55465 7.00041 5.66 7.26562 5.66H7.76562V7.16H1.76562C1.63302 7.16 1.50584 7.21268 1.41207 7.30645C1.3183 7.40022 1.26563 7.5274 1.26562 7.66C1.26563 7.79261 1.3183 7.91979 1.41207 8.01356C1.50584 8.10733 1.63302 8.16 1.76562 8.16H3.76562V10.16H3.26562C3.00041 10.16 2.74605 10.2654 2.55852 10.4529C2.37098 10.6404 2.26562 10.8948 2.26562 11.16V13.16C2.26562 13.4252 2.37098 13.6796 2.55852 13.8671C2.74605 14.0546 3.00041 14.16 3.26562 14.16H5.26562C5.53084 14.16 5.7852 14.0546 5.97273 13.8671C6.16027 13.6796 6.26562 13.4252 6.26562 13.16V11.16C6.26562 10.8948 6.16027 10.6404 5.97273 10.4529C5.7852 10.2654 5.53084 10.16 5.26562 10.16H4.76562V8.16H11.7656V10.16H11.2656C11.0004 10.16 10.7461 10.2654 10.5585 10.4529C10.371 10.6404 10.2656 10.8948 10.2656 11.16V13.16C10.2656 13.4252 10.371 13.6796 10.5585 13.8671C10.7461 14.0546 11.0004 14.16 11.2656 14.16H13.2656C13.5308 14.16 13.7852 14.0546 13.9727 13.8671C14.1603 13.6796 14.2656 13.4252 14.2656 13.16V11.16C14.2656 10.8948 14.1603 10.6404 13.9727 10.4529C13.7852 10.2654 13.5308 10.16 13.2656 10.16H12.7656V8.16H14.7656C14.8982 8.16 15.0254 8.10733 15.1192 8.01356C15.2129 7.91979 15.2656 7.79261 15.2656 7.66C15.2656 7.5274 15.2129 7.40022 15.1192 7.30645C15.0254 7.21268 14.8982 7.16 14.7656 7.16ZM7.26562 2.66H9.26562V4.66H7.26562V2.66ZM5.26562 13.16H3.26562V11.16H5.26562V13.16ZM13.2656 13.16H11.2656V11.16H13.2656V13.16Z" fill="#F9F5FF"/>
</svg>
