<svg width="183" height="176" viewBox="0 0 183 176" fill="none" xmlns="http://www.w3.org/2000/svg">
<path d="M78.358 75.0721C78.358 75.0721 77.1612 77.9986 77.5367 80.2577L74.2467 80.1949L71.6121 78.3112L71.9096 76.4328C71.9096 76.4328 73.704 73.784 73.8702 70.4194L78.358 75.0721Z" fill="#FFB9B9"/>
<path d="M18.4709 164.567C19.2306 164.834 20.0464 164.901 20.8395 164.762C21.6325 164.622 22.3763 164.28 22.999 163.77C24.585 162.439 25.0823 160.245 25.4869 158.215L26.6836 152.209L24.1782 153.934C22.3772 155.175 20.5341 156.455 19.2866 158.252C18.0391 160.05 17.4949 162.502 18.4969 164.447" fill="#E6E6E6"/>
<path d="M18.858 172.258C18.5428 169.96 18.219 167.633 18.4399 165.311C18.6365 163.249 19.2657 161.235 20.5465 159.583C21.2264 158.708 22.0537 157.959 22.9913 157.368C23.2357 157.213 23.4607 157.6 23.2173 157.755C21.5953 158.781 20.3409 160.294 19.6348 162.079C18.8545 164.063 18.7294 166.226 18.8636 168.334C18.9448 169.608 19.1175 170.874 19.2908 172.139C19.3045 172.197 19.2959 172.257 19.2668 172.308C19.2378 172.359 19.1905 172.397 19.1344 172.415C19.0771 172.43 19.016 172.423 18.9644 172.393C18.9129 172.364 18.8749 172.316 18.8588 172.258L18.858 172.258Z" fill="#F2F2F2"/>
<path d="M21.1289 168.571C21.4547 169.067 21.9025 169.47 22.4293 169.742C22.9561 170.014 23.544 170.146 24.1365 170.124C25.6594 170.052 26.9285 168.99 28.0709 167.981L31.4505 164.996L29.2138 164.889C27.6054 164.812 25.9553 164.74 24.4233 165.236C22.8913 165.733 21.4782 166.926 21.1982 168.512" fill="#E6E6E6"/>
<path d="M17.967 173.579C19.4852 170.893 21.2459 167.907 24.3925 166.953C25.2673 166.689 26.1845 166.594 27.0949 166.674C27.3819 166.699 27.3102 167.141 27.0238 167.116C25.4977 166.99 23.9746 167.393 22.7108 168.257C21.4947 169.085 20.5477 170.236 19.7464 171.456C19.2555 172.204 18.8157 172.983 18.3762 173.761C18.2356 174.01 17.8248 173.831 17.967 173.579Z" fill="#F2F2F2"/>
<path d="M170.581 167.767C170.139 168.162 169.603 168.438 169.024 168.566C168.446 168.694 167.844 168.671 167.276 168.499C165.822 168.04 164.867 166.689 164.02 165.42L161.516 161.672L163.705 162.14C165.28 162.476 166.894 162.828 168.248 163.7C169.602 164.572 170.663 166.086 170.529 167.691" fill="#E6E6E6"/>
<path d="M172.355 173.415C171.574 170.43 170.634 167.093 167.836 165.367C167.058 164.887 166.195 164.561 165.295 164.406C165.011 164.357 164.967 164.803 165.25 164.852C166.758 165.119 168.128 165.898 169.128 167.057C170.092 168.168 170.714 169.523 171.177 170.907C171.46 171.756 171.686 172.621 171.913 173.486C171.985 173.763 172.428 173.694 172.355 173.415Z" fill="#F2F2F2"/>
<path d="M141.588 114.468H90.4012C89.5501 114.468 88.8603 114.293 88.8594 114.08V109.739C88.8603 109.526 89.5501 109.352 90.4012 109.352H141.588C142.439 109.352 143.128 109.526 143.13 109.739V114.08C143.129 114.293 142.439 114.467 141.588 114.467V114.468Z" fill="#F1F1F1"/>
<path d="M122.293 92.4896L122.236 92.4478L122.235 92.4468C122.088 92.3375 121.903 92.2912 121.721 92.318C121.54 92.3448 121.376 92.4426 121.267 92.5899L109.745 108.102H108.477V107.804C108.477 107.731 108.448 107.66 108.396 107.609C108.344 107.557 108.273 107.527 108.2 107.527H107.444C107.37 107.527 107.3 107.557 107.248 107.608C107.196 107.66 107.167 107.731 107.167 107.804V108.102H106.729V107.804C106.729 107.731 106.7 107.661 106.648 107.609C106.596 107.557 106.525 107.527 106.452 107.527H105.696C105.622 107.527 105.552 107.557 105.5 107.608C105.448 107.66 105.419 107.731 105.419 107.804V108.102H104.982V107.804C104.982 107.731 104.953 107.661 104.901 107.609C104.849 107.557 104.779 107.527 104.705 107.527H103.949C103.876 107.527 103.805 107.557 103.753 107.608C103.701 107.66 103.672 107.731 103.672 107.804V108.102H103.234V107.804C103.234 107.731 103.205 107.661 103.153 107.609C103.101 107.557 103.031 107.527 102.957 107.527H102.201C102.128 107.527 102.057 107.557 102.005 107.608C101.953 107.66 101.924 107.731 101.924 107.804V108.102H101.488V107.804C101.488 107.731 101.459 107.661 101.407 107.609C101.355 107.557 101.284 107.527 101.211 107.527H100.455C100.418 107.527 100.382 107.535 100.349 107.548C100.315 107.562 100.284 107.583 100.259 107.609C100.233 107.634 100.213 107.665 100.199 107.698C100.185 107.732 100.178 107.768 100.178 107.804V108.102H99.74V107.804C99.74 107.731 99.7108 107.661 99.6589 107.609C99.607 107.557 99.5365 107.527 99.4631 107.527H98.7069C98.6334 107.527 98.563 107.557 98.511 107.608C98.459 107.66 98.4298 107.731 98.4298 107.804V108.102H97.9921V107.804C97.9921 107.731 97.9629 107.661 97.911 107.609C97.8591 107.557 97.7886 107.527 97.7152 107.527H96.959C96.8855 107.527 96.8151 107.557 96.7631 107.608C96.7111 107.66 96.6819 107.731 96.6819 107.804V108.102H96.2446V107.804C96.2446 107.731 96.2154 107.661 96.1635 107.609C96.1116 107.557 96.0411 107.527 95.9677 107.527H95.2115C95.138 107.527 95.0676 107.557 95.0156 107.608C94.9636 107.66 94.9344 107.731 94.9344 107.804V108.102H94.4967V107.804C94.4967 107.731 94.4675 107.661 94.4156 107.609C94.3637 107.557 94.2933 107.527 94.2198 107.527H93.4638C93.3903 107.527 93.3199 107.557 93.2679 107.608C93.2159 107.66 93.1867 107.731 93.1867 107.804V108.102H92.7504V107.804C92.7504 107.731 92.7212 107.661 92.6693 107.609C92.6174 107.557 92.5469 107.527 92.4735 107.527H91.7172C91.6438 107.527 91.5733 107.557 91.5214 107.608C91.4694 107.66 91.4402 107.731 91.4401 107.804V108.102H90.8917C90.7081 108.102 90.5319 108.175 90.4021 108.305C90.2722 108.435 90.1992 108.611 90.1992 108.795V109.455C90.1992 109.639 90.2722 109.815 90.4021 109.945C90.5319 110.075 90.7081 110.148 90.8917 110.148H109.63C109.867 110.148 110.097 110.066 110.281 109.916C110.465 109.766 110.592 109.558 110.64 109.325L110.647 109.331L122.435 93.4596L122.436 93.4582C122.546 93.3108 122.592 93.126 122.565 92.9445C122.538 92.763 122.44 92.5995 122.293 92.49L122.293 92.4896Z" fill="#090814"/>
<path d="M49.0898 167.511L53.055 169.484L57.7638 160.77L53.6838 158.533L49.0898 167.511Z" fill="#FFB7B7"/>
<path d="M76.3605 170.864H80.1722L81.0651 160.779H76.3594L76.3605 170.864Z" fill="#FFB7B7"/>
<path d="M64.1289 88.6058C64.1289 88.6058 62.3781 87.2644 62.3781 90.541L62.1016 101.369L65.1885 111.597L66.9854 108.28L66.2482 101.092L64.1289 88.6058Z" fill="#2A7251"/>
<path d="M82.8583 118.221C82.8583 118.221 84.8885 128.108 82.3161 136.222L80.8949 167.421L75.6839 167.014L73.858 143.87L72.0985 132.365L68.4435 142.854L56.3971 165.052L50.8477 160.721C50.8477 160.721 56.9972 143.941 61.5405 140.418L63.8191 114.467L82.8583 118.221Z" fill="#090814"/>
<path d="M81.8984 72.295C83.4724 69.4156 82.4142 65.8053 79.5348 64.2313C76.6554 62.6573 73.0451 63.7155 71.4711 66.5949C69.8971 69.4744 70.9553 73.0846 73.8347 74.6586C76.7142 76.2326 80.3244 75.1744 81.8984 72.295Z" fill="#FFB7B7"/>
<path d="M76.2623 70.706C76.9745 70.7988 77.5119 70.0699 77.7609 69.3964C78.01 68.7229 78.2 67.9384 78.8193 67.5745C79.6653 67.0774 80.7478 67.6752 81.7153 67.5112C82.8079 67.3259 83.5184 66.168 83.5743 65.0613C83.6303 63.9546 83.1896 62.8901 82.7573 61.8696L82.6065 63.1378C82.6267 62.7079 82.5362 62.2801 82.3438 61.8952C82.1514 61.5103 81.8635 61.1813 81.5075 60.9395L81.7012 62.8002C81.6598 62.5435 81.5681 62.2975 81.4313 62.0763C81.2946 61.8551 81.1156 61.6631 80.9045 61.5113C80.6934 61.3595 80.4544 61.2508 80.2012 61.1915C79.948 61.1323 79.6856 61.1236 79.4291 61.166L79.4597 62.2749C78.1976 62.1248 76.9248 61.9745 75.6591 62.0888C74.3934 62.203 73.1188 62.6035 72.1596 63.4372C70.7247 64.6841 70.2006 66.7372 70.3765 68.6299C70.5523 70.5226 71.3337 72.3009 72.1482 74.0186C72.3531 74.4508 72.6364 74.9385 73.1116 74.9935C73.5376 75.0428 73.9292 74.6861 74.0618 74.2769C74.1641 73.8575 74.1601 73.4192 74.0502 73.0018C73.9302 72.3637 73.7791 71.7117 73.8916 71.0724C74.0041 70.4332 74.4644 69.8013 75.1089 69.7231C75.7534 69.6448 76.4128 70.3815 76.1029 70.9518L76.2623 70.706Z" fill="#090814"/>
<path d="M83.2241 120.865L63.3906 119.585L64.8835 113.4L83.0107 117.453L83.2241 120.865Z" fill="#D6D6E3"/>
<path d="M70.9931 77.5475L72.2371 75.8203C72.2371 75.8203 73.6275 76.2928 77.3514 78.1464L77.6145 79.7646L84.0784 119.521L72.3294 119.014L69.1299 118.946L68.0829 116.599L66.7918 118.896L63.6674 118.83L60.4883 116.987L63.6214 107.403L64.6349 98.6492L63.0683 90.4018C63.0683 90.4018 61.0971 82.8285 68.6894 78.7441L70.9931 77.5475Z" fill="#2A7251"/>
<path d="M97.4773 107.645C97.1896 107.718 96.8893 107.727 96.5977 107.672C96.306 107.616 96.0301 107.498 95.7893 107.324C95.5486 107.15 95.3488 106.926 95.2041 106.667C95.0594 106.407 94.9733 106.12 94.9519 105.824L87.9805 103.957L90.7845 101.467L96.9748 103.622C97.4745 103.619 97.9579 103.8 98.3335 104.129C98.7091 104.459 98.9507 104.915 99.0127 105.411C99.0746 105.907 98.9525 106.408 98.6696 106.82C98.3866 107.232 97.9624 107.526 97.4773 107.646V107.645Z" fill="#FFB7B7"/>
<path d="M94.3572 106.59C94.2106 106.67 94.0489 106.718 93.8825 106.732C93.7161 106.745 93.5488 106.723 93.3914 106.667L81.9248 102.315C79.1274 101.324 76.7854 99.3498 75.3345 96.7607L70.5526 88.2306C70.2174 87.8557 69.9593 87.4184 69.7931 86.9437C69.6269 86.469 69.5559 85.9662 69.5842 85.464C69.6124 84.9619 69.7394 84.4702 69.9578 84.0172C70.1761 83.5641 70.4817 83.1585 70.8569 82.8236C71.2321 82.4887 71.6697 82.231 72.1445 82.0653C72.6194 81.8996 73.1223 81.8291 73.6244 81.8578C74.1265 81.8866 74.6181 82.014 75.0709 82.2328C75.5238 82.4516 75.929 82.7576 76.2636 83.1331L84.5402 96.2514L94.9561 102.358C95.1603 102.492 95.3184 102.685 95.4091 102.912C95.4997 103.139 95.5186 103.388 95.4631 103.626L94.9451 105.82C94.8894 106.056 94.7634 106.269 94.5837 106.43C94.5148 106.493 94.4389 106.546 94.3573 106.591L94.3572 106.59Z" fill="#2A7251"/>
<path d="M182.806 173.837H0.193651C0.142291 173.837 0.0930353 173.816 0.0567188 173.78C0.0204023 173.743 0 173.694 0 173.643C0 173.592 0.0204023 173.542 0.0567188 173.506C0.0930353 173.47 0.142291 173.449 0.193651 173.449H182.806C182.858 173.449 182.907 173.47 182.943 173.506C182.979 173.542 183 173.592 183 173.643C183 173.694 182.979 173.743 182.943 173.78C182.907 173.816 182.858 173.837 182.806 173.837Z" fill="#CBCBCB"/>
<path d="M182.999 74.9966H97.3711V21.6875H182.999L182.999 74.9966ZM99.3634 73.0043H181.006V23.68H99.3634V73.0043Z" fill="#E5E5E5"/>
<path d="M182.003 22.6836H98.3672V74.0002H182.003V22.6836Z" fill="white"/>
<path d="M182.003 35.6896V32.5389H170.401V22.6836H167.25V32.5387H146.594V22.6836H143.443V32.5387H111.585V22.6836H108.434V32.5387H98.3672V35.6896H108.434V47.9434H98.3672V51.0943H108.434V64.2228H98.3672V67.3737H125.414V74.001H128.564V67.3731H143.443V74.0004H146.594V67.3731H182.003V64.2222H146.594V51.0937H182.003V47.9434H170.401V35.6896H182.003ZM143.443 35.6896V39.5405H111.585V35.6896H143.443ZM111.585 42.6916H143.443V47.9434H111.585V42.6916ZM111.585 64.2222V51.0937H125.414V64.2222H111.585ZM143.443 64.2222H128.564V51.0937H143.443V64.2222ZM167.25 47.9434H146.594V35.6896H167.25V47.9434Z" fill="#E6E6E6"/>
<path d="M160.221 15.1084C160.221 23.4526 145.113 42.0408 145.113 42.0408C145.113 42.0408 130.004 23.4524 130.004 15.1084C130.004 11.1014 131.596 7.25854 134.429 4.42516C137.262 1.59178 141.105 0 145.112 0C149.119 0 152.962 1.59178 155.796 4.42516C158.629 7.25854 160.221 11.1014 160.221 15.1084H160.221Z" fill="#2A7251"/>
<path d="M152.017 14.4517C152.017 15.8177 151.612 17.153 150.853 18.2888C150.094 19.4247 149.015 20.3099 147.753 20.8327C146.491 21.3554 145.102 21.4922 143.762 21.2257C142.423 20.9592 141.192 20.3014 140.226 19.3355C139.26 18.3695 138.602 17.1389 138.336 15.7991C138.069 14.4593 138.206 13.0706 138.729 11.8086C139.252 10.5465 140.137 9.46784 141.273 8.70892C142.408 7.94999 143.744 7.54492 145.11 7.54492C146.942 7.54492 148.698 8.2726 149.994 9.56786C151.289 10.8631 152.017 12.6199 152.017 14.4517Z" fill="white"/>
<path d="M145.112 52.9442C147.361 52.9442 149.184 51.1208 149.184 48.8715C149.184 46.6222 147.361 44.7988 145.112 44.7988C142.862 44.7988 141.039 46.6222 141.039 48.8715C141.039 51.1208 142.862 52.9442 145.112 52.9442Z" fill="#2A7251"/>
<path d="M80.2299 169.971L84.6029 172.208C84.6029 172.208 91.4467 173.84 86.9908 175.195C82.5349 176.551 80.5291 175.588 80.5291 175.588C80.5291 175.588 74.7002 175.891 74.7941 174.264C74.888 172.638 76.0094 170.351 76.0094 170.351C76.0094 170.351 79.9105 171.371 80.2299 169.971Z" fill="#090814"/>
<path d="M53.9287 167.908L57.2469 170.98C57.2469 170.98 63.3759 174.435 58.7189 174.51C54.0619 174.585 52.3994 173.106 52.3994 173.106C52.3994 173.106 46.7128 171.79 47.2513 170.253C47.7899 168.715 49.4982 166.826 49.4982 166.826C49.4982 166.826 53.2357 169.165 53.9287 167.908Z" fill="#090814"/>
<path d="M113.439 171.267V115.551C113.439 114.625 113.613 113.874 113.826 113.873H118.167C118.38 113.874 118.555 114.625 118.555 115.551V171.267C118.555 172.194 118.38 172.945 118.167 172.946H113.826C113.613 172.945 113.439 172.194 113.439 171.267H113.439Z" fill="#F1F1F1"/>
</svg>
